<svg viewBox="-50 -350 300 600" style="background-color:white"
  xmlns="http://www.w3.org/2000/svg">
  <g transform="scale(1,-1)">
    <g>
      <pattern id="small-raster" x="0" y="0" width="10" height="10" patternUnits="userSpaceOnUse">
        <line x1="0" y1="0" x2="0" y2="10" stroke="#EEE" stroke-width="1"></line>
        <line x1="0" y1="0" x2="10" y2="0" stroke="#EEE" stroke-width="1"></line>
      </pattern>
      <rect fill="url(#small-raster)" x="-50" y="-250" width="300" height="600"></rect>
      <pattern id="large-raster" x="0" y="0" width="50" height="50" patternUnits="userSpaceOnUse">
        <line x1="0" y1="0" x2="0" y2="50" stroke="#CCC" stroke-width="2"></line>
        <line x1="0" y1="0" x2="50" y2="0" stroke="#CCC" stroke-width="2"></line>
      </pattern>
      <rect fill="url(#large-raster)" x="-50" y="-250" width="300" height="600"></rect>
      <g id="grid-axis">
        <line x1="0" y1="-250" x2="0" y2="350" stroke="#666" stroke-width="2"></line>
        <line x1="-50" y1="0" x2="250" y2="0" stroke="#666" stroke-width="2"></line>
      </g>
    </g>
    <circle cx="100" cy="200" r="78.44645405527362" fill="#CCC" stroke="#000" stroke-width="1"></circle>
    <g transform="translate(100,200)">
      <line x1="0" y1="-15" x2="0" y2="15" stroke="#000" stroke-width="1"></line>
      <line x1="-15" y1="0" x2="15" y2="0" stroke="#000" stroke-width="1"></line>
      <circle r="10" stroke="#000" stroke-width="1" fill="none"></circle>
      <circle r="5" fill="#000"></circle>
    </g>
    <line x1="200" y1="300" x2="100" y2="-200" stroke="#00F" stroke-width="2"></line>
    <line x1="100" y1="200" x2="176.92307692307705" y2="184.6153846153852" stroke="#000" stroke-width="1"></line>
    <line x1="150" y1="50" x2="73.07692307692295" y2="65.38461538461479" stroke="#C00" stroke-width="1"></line>
    <g transform="translate(0,100)">
      <line x1="0" y1="-15" x2="0" y2="15" stroke="red" stroke-width="1"></line>
      <line x1="-15" y1="0" x2="15" y2="0" stroke="red" stroke-width="1"></line>
      <circle r="10" stroke="red" stroke-width="1" fill="none"></circle>
      <circle r="5" fill="red"></circle>
    </g>
    <g transform="translate(100,0)">
      <line x1="0" y1="-15" x2="0" y2="15" stroke="#CCF" stroke-width="1"></line>
      <line x1="-15" y1="0" x2="15" y2="0" stroke="#CCF" stroke-width="1"></line>
      <circle r="10" stroke="#CCF" stroke-width="1" fill="none"></circle>
      <circle r="5" fill="#CCF"></circle>
    </g>
    <g transform="translate(0,0)">
      <line x1="0" y1="-15" x2="0" y2="15" stroke="#000" stroke-width="1"></line>
      <line x1="-15" y1="0" x2="15" y2="0" stroke="#000" stroke-width="1"></line>
      <circle r="10" stroke="#000" stroke-width="1" fill="none"></circle>
      <circle r="5" fill="#000"></circle>
    </g>
  </g>
</svg>