<svg viewBox="-300 -300 600 600" xmlns="http://www.w3.org/2000/svg" style="background-color:white" width="500"><g transform="scale(1,-1)"><g><pattern id="small-raster" x="0" y="0" width="10" height="10" patternUnits="userSpaceOnUse"><line x1="0" y1="0" x2="0" y2="10" stroke="#EEE" stroke-width="1"></line><line x1="0" y1="0" x2="10" y2="0" stroke="#EEE" stroke-width="1"></line></pattern><rect fill="url(#small-raster)" x="-300" y="-300" width="600" height="600"></rect><pattern id="large-raster" x="0" y="0" width="50" height="50" patternUnits="userSpaceOnUse"><line x1="0" y1="0" x2="0" y2="50" stroke="#CCC" stroke-width="2"></line><line x1="0" y1="0" x2="50" y2="0" stroke="#CCC" stroke-width="2"></line></pattern><rect fill="url(#large-raster)" x="-300" y="-300" width="600" height="600"></rect><g id="grid-axis"><line x1="0" y1="-300" x2="0" y2="300" stroke="#666" stroke-width="2"></line><line x1="-300" y1="0" x2="300" y2="0" stroke="#666" stroke-width="2"></line></g></g><circle cx="0" cy="0" r="50" fill="orange" fill-opacity="0.5"></circle><path d="M 75, 0 A 75 75 0 0 1 4.592425496802574e-15, 75" fill="none" stroke="#666" stroke-width="8"></path><path d="M 100, 0 A 100 100 0 0 0 6.123233995736766e-15, -100" fill="none" stroke="red" stroke-width="8"></path><path d="M 32.352380637815095, 120.74072828613355 A 125 125 0 0 1 -88.38834764831843, 88.38834764831844" fill="none" stroke="#666" stroke-width="8"></path><path d="M 38.82285676537811, 144.88887394336024 A 150 150 0 0 0 144.88887394336024, 38.82285676537811" fill="none" stroke="red" stroke-width="8"></path><path d="M 45.29333289294113, 169.03701960058694 A 175 175 0 1 1 73.95819580462238, 158.60386273141376" fill="none" stroke="#666" stroke-width="8"></path><path d="M 51.76380902050415, 193.18516525781365 A 200 200 0 1 0 17.431148549531578, 199.23893961834912" fill="none" stroke="red" stroke-width="8"></path><path d="M 58.234285148067165, -217.33331091504036 A 225 225 0 1 1 19.610042118223024, -224.14380707064274" fill="none" stroke="#666" stroke-width="8"></path><path d="M 64.70476127563019, -241.4814565722671 A 250 250 0 1 0 105.65456543517482, -226.57694675916252" fill="none" stroke="red" stroke-width="8"></path></g></svg>