<svg viewBox="-350 -370 700 500" xmlns="http://www.w3.org/2000/svg" style="background-color:white" width="500"><g transform="scale(1,-1)"><g><pattern id="small-raster" x="0" y="0" width="10" height="10" patternUnits="userSpaceOnUse"><line x1="0" y1="0" x2="0" y2="10" stroke="#EEE" stroke-width="1"></line><line x1="0" y1="0" x2="10" y2="0" stroke="#EEE" stroke-width="1"></line></pattern><rect fill="url(#small-raster)" x="-350" y="-130" width="700" height="500"></rect><pattern id="large-raster" x="0" y="0" width="50" height="50" patternUnits="userSpaceOnUse"><line x1="0" y1="0" x2="0" y2="50" stroke="#CCC" stroke-width="2"></line><line x1="0" y1="0" x2="50" y2="0" stroke="#CCC" stroke-width="2"></line></pattern><rect fill="url(#large-raster)" x="-350" y="-130" width="700" height="500"></rect><g id="grid-axis"><line x1="0" y1="-130" x2="0" y2="370" stroke="#666" stroke-width="2"></line><line x1="-350" y1="0" x2="350" y2="0" stroke="#666" stroke-width="2"></line></g></g><circle cx="50" cy="120" r="200" fill="orange" fill-opacity="0.5"></circle><g transform="translate(50,120)"><line x1="0" y1="-15" x2="0" y2="15" stroke="blue" stroke-width="1"></line><line x1="-15" y1="0" x2="15" y2="0" stroke="blue" stroke-width="1"></line><circle r="10" stroke="blue" stroke-width="1" fill="none"></circle><circle r="5" fill="blue"></circle></g><line x1="-300" y1="50" x2="249.9146215599572" y2="114.15670584866166" stroke="blue" stroke-width="3"></line><line x1="-143.20045329467916" y1="68.2932804489541" x2="249.9146215599572" y2="114.15670584866166" stroke="black" stroke-width="6"></line><line x1="-143.20045329467916" y1="68.2932804489541" x2="300" y2="120" stroke="blue" stroke-width="3"></line><g transform="translate(-143.20045329467916,68.2932804489541)"><line x1="0" y1="-15" x2="0" y2="15" stroke="#111" stroke-width="1"></line><line x1="-15" y1="0" x2="15" y2="0" stroke="#111" stroke-width="1"></line><circle r="10" stroke="#111" stroke-width="1" fill="none"></circle><circle r="5" fill="#111"></circle></g><g transform="translate(249.9146215599572,114.15670584866166)"><line x1="0" y1="-15" x2="0" y2="15" stroke="#444" stroke-width="1"></line><line x1="-15" y1="0" x2="15" y2="0" stroke="#444" stroke-width="1"></line><circle r="10" stroke="#444" stroke-width="1" fill="none"></circle><circle r="5" fill="#444"></circle></g></g></svg>