<svg viewBox="-400 -570 700 700" xmlns="http://www.w3.org/2000/svg" style="background-color:white" width="500"><g transform="scale(1,-1)"><g><pattern id="small-raster" x="0" y="0" width="10" height="10" patternUnits="userSpaceOnUse"><line x1="0" y1="0" x2="0" y2="10" stroke="#EEE" stroke-width="1"></line><line x1="0" y1="0" x2="10" y2="0" stroke="#EEE" stroke-width="1"></line></pattern><rect fill="url(#small-raster)" x="-400" y="-130" width="700" height="700"></rect><pattern id="large-raster" x="0" y="0" width="50" height="50" patternUnits="userSpaceOnUse"><line x1="0" y1="0" x2="0" y2="50" stroke="#CCC" stroke-width="2"></line><line x1="0" y1="0" x2="50" y2="0" stroke="#CCC" stroke-width="2"></line></pattern><rect fill="url(#large-raster)" x="-400" y="-130" width="700" height="700"></rect><g id="grid-axis"><line x1="0" y1="-130" x2="0" y2="570" stroke="#666" stroke-width="2"></line><line x1="-400" y1="0" x2="300" y2="0" stroke="#666" stroke-width="2"></line></g></g><circle cx="50" cy="120" r="200" fill="orange" fill-opacity="0.5"></circle><g transform="translate(50,120)"><line x1="0" y1="-15" x2="0" y2="15" stroke="blue" stroke-width="1"></line><line x1="-15" y1="0" x2="15" y2="0" stroke="blue" stroke-width="1"></line><circle r="10" stroke="blue" stroke-width="1" fill="none"></circle><circle r="5" fill="blue"></circle></g><circle cx="-150" cy="320" r="200" fill="red" fill-opacity="0.5"></circle><g transform="translate(-150,320)"><line x1="0" y1="-15" x2="0" y2="15" stroke="blue" stroke-width="1"></line><line x1="-15" y1="0" x2="15" y2="0" stroke="blue" stroke-width="1"></line><circle r="10" stroke="blue" stroke-width="1" fill="none"></circle><circle r="5" fill="blue"></circle></g><line x1="50.000000000000625" y1="320.0000000000006" x2="-149.9999999999994" y2="120.00000000000063" fill="black" stroke="black" stroke-width="4"></line></g></svg>