<svg viewBox="-150 -500 600 650" xmlns="http://www.w3.org/2000/svg" style="background-color:white" width="500"><g transform="scale(1,-1)"><g><pattern id="small-raster" x="0" y="0" width="10" height="10" patternUnits="userSpaceOnUse"><line x1="0" y1="0" x2="0" y2="10" stroke="#EEE" stroke-width="1"></line><line x1="0" y1="0" x2="10" y2="0" stroke="#EEE" stroke-width="1"></line></pattern><rect fill="url(#small-raster)" x="-150" y="-150" width="600" height="650"></rect><pattern id="large-raster" x="0" y="0" width="50" height="50" patternUnits="userSpaceOnUse"><line x1="0" y1="0" x2="0" y2="50" stroke="#CCC" stroke-width="2"></line><line x1="0" y1="0" x2="50" y2="0" stroke="#CCC" stroke-width="2"></line></pattern><rect fill="url(#large-raster)" x="-150" y="-150" width="600" height="650"></rect><g id="grid-axis"><line x1="0" y1="-150" x2="0" y2="500" stroke="#666" stroke-width="2"></line><line x1="-150" y1="0" x2="450" y2="0" stroke="#666" stroke-width="2"></line></g></g><circle cx="200" cy="300" r="150" fill="orange" fill-opacity="0.7"></circle><line x1="400" y1="50" x2="148.06012243330278" y2="159.27953553816144" fill="#BBB" stroke="#000" stroke-width="2"></line><line x1="400" y1="50" x2="348.6896945505865" y2="319.78319323198843" fill="#BBB" stroke="#000" stroke-width="2"></line><g transform="translate(400,50)"><line x1="0" y1="-15" x2="0" y2="15" stroke="#BBB" stroke-width="1"></line><line x1="-15" y1="0" x2="15" y2="0" stroke="#BBB" stroke-width="1"></line><circle r="10" stroke="#BBB" stroke-width="1" fill="none"></circle><circle r="5" fill="#BBB"></circle></g><line x1="200" y1="300" x2="148.06012243330278" y2="159.27953553816144" fill="#BBB" stroke="#000" stroke-width="2"></line><line x1="200" y1="300" x2="348.6896945505865" y2="319.78319323198843" fill="#BBB" stroke="#000" stroke-width="2"></line><circle cx="0" cy="0" r="100" fill="red" fill-opacity="0.7"></circle><line x1="100" y1="100" x2="-100" y2="100" fill="#BBB" stroke="#000" stroke-width="2"></line></g></svg>