<svg viewBox="-150 -350 600 600" xmlns="http://www.w3.org/2000/svg" style="background-color:white" width="500"><g transform="scale(1,-1)"><g><pattern id="small-raster" x="0" y="0" width="10" height="10" patternUnits="userSpaceOnUse"><line x1="0" y1="0" x2="0" y2="10" stroke="#EEE" stroke-width="1"></line><line x1="0" y1="0" x2="10" y2="0" stroke="#EEE" stroke-width="1"></line></pattern><rect fill="url(#small-raster)" x="-150" y="-250" width="600" height="600"></rect><pattern id="large-raster" x="0" y="0" width="50" height="50" patternUnits="userSpaceOnUse"><line x1="0" y1="0" x2="0" y2="50" stroke="#CCC" stroke-width="2"></line><line x1="0" y1="0" x2="50" y2="0" stroke="#CCC" stroke-width="2"></line></pattern><rect fill="url(#large-raster)" x="-150" y="-250" width="600" height="600"></rect><g id="grid-axis"><line x1="0" y1="-250" x2="0" y2="350" stroke="#666" stroke-width="2"></line><line x1="-150" y1="0" x2="450" y2="0" stroke="#666" stroke-width="2"></line></g></g><line x1="200" y1="300" x2="100" y2="-200" stroke="red" stroke-width="4"></line><line x1="-100" y1="250" x2="400" y2="0" stroke="blue" stroke-width="4"></line><path d="M 148.65709479922512, 43.285473996125575 A 100 100 0 0 1 111.99308858162556, 141.8323092475763" fill="none" stroke="black" stroke-width="4"></path><g transform="translate(148.65709479922512,43.285473996125575)"><line x1="0" y1="-15" x2="0" y2="15" stroke="#BBB" stroke-width="1"></line><line x1="-15" y1="0" x2="15" y2="0" stroke="#BBB" stroke-width="1"></line><circle r="10" stroke="#BBB" stroke-width="1" fill="none"></circle><circle r="5" fill="#BBB"></circle></g><g transform="translate(111.99308858162556,141.8323092475763)"><line x1="0" y1="-15" x2="0" y2="15" stroke="#BBB" stroke-width="1"></line><line x1="-15" y1="0" x2="15" y2="0" stroke="#BBB" stroke-width="1"></line><circle r="10" stroke="#BBB" stroke-width="1" fill="none"></circle><circle r="5" fill="#BBB"></circle></g></g></svg>