<svg viewBox="-60.62257748298549 -130.6225774829855 261.245154965971 261.245154965971" xmlns="http://www.w3.org/2000/svg" style="background-color:white" width="500"><g transform="scale(1,-1)"><g><pattern id="small-raster" x="0" y="0" width="10" height="10" patternUnits="userSpaceOnUse"><line x1="0" y1="0" x2="0" y2="10" stroke="#EEE" stroke-width="1"></line><line x1="0" y1="0" x2="10" y2="0" stroke="#EEE" stroke-width="1"></line></pattern><rect fill="url(#small-raster)" x="-60.62257748298549" y="-130.6225774829855" width="261.245154965971" height="261.245154965971"></rect><pattern id="large-raster" x="0" y="0" width="50" height="50" patternUnits="userSpaceOnUse"><line x1="0" y1="0" x2="0" y2="50" stroke="#CCC" stroke-width="2"></line><line x1="0" y1="0" x2="50" y2="0" stroke="#CCC" stroke-width="2"></line></pattern><rect fill="url(#large-raster)" x="-60.62257748298549" y="-130.6225774829855" width="261.245154965971" height="261.245154965971"></rect><g id="grid-axis"><line x1="0" y1="-130.6225774829855" x2="0" y2="130.6225774829855" stroke="#666" stroke-width="2"></line><line x1="-60.62257748298549" y1="0" x2="200.6225774829855" y2="0" stroke="#666" stroke-width="2"></line></g></g><g transform="translate(30,70)"><line x1="0" y1="-15" x2="0" y2="15" stroke="#000" stroke-width="1"></line><line x1="-15" y1="0" x2="15" y2="0" stroke="#000" stroke-width="1"></line><circle r="10" stroke="#000" stroke-width="1" fill="none"></circle><circle r="5" fill="#000"></circle></g><g transform="translate(-10,-10)"><line x1="0" y1="-15" x2="0" y2="15" stroke="#000" stroke-width="1"></line><line x1="-15" y1="0" x2="15" y2="0" stroke="#000" stroke-width="1"></line><circle r="10" stroke="#000" stroke-width="1" fill="none"></circle><circle r="5" fill="#000"></circle></g><path d="M 30, 70 A 80.62257748298549 80.62257748298549 0 0 1 -10, -9.999999999999975" fill="none" stroke="#666" stroke-width="8"></path><path d="M 30, 70 A 80.62257748298549 80.62257748298549 0 1 0 -10, -9.999999999999993" fill="none" stroke="blue" stroke-width="8"></path></g></svg>