<svg viewBox="-250 -250 500 500" xmlns="http://www.w3.org/2000/svg" style="background-color:white" width="500"><g transform="scale(1,-1)"><g><pattern id="small-raster" x="0" y="0" width="10" height="10" patternUnits="userSpaceOnUse"><line x1="0" y1="0" x2="0" y2="10" stroke="#EEE" stroke-width="1"></line><line x1="0" y1="0" x2="10" y2="0" stroke="#EEE" stroke-width="1"></line></pattern><rect fill="url(#small-raster)" x="-250" y="-250" width="500" height="500"></rect><pattern id="large-raster" x="0" y="0" width="50" height="50" patternUnits="userSpaceOnUse"><line x1="0" y1="0" x2="0" y2="50" stroke="#CCC" stroke-width="2"></line><line x1="0" y1="0" x2="50" y2="0" stroke="#CCC" stroke-width="2"></line></pattern><rect fill="url(#large-raster)" x="-250" y="-250" width="500" height="500"></rect><g id="grid-axis"><line x1="0" y1="-250" x2="0" y2="250" stroke="#666" stroke-width="2"></line><line x1="-250" y1="0" x2="250" y2="0" stroke="#666" stroke-width="2"></line></g></g><circle cx="0" cy="0" r="200" fill="orange" fill-opacity="0.5"></circle><g transform="translate(200,0)"><line x1="0" y1="-15" x2="0" y2="15" stroke="#000" stroke-width="1"></line><line x1="-15" y1="0" x2="15" y2="0" stroke="#000" stroke-width="1"></line><circle r="10" stroke="#000" stroke-width="1" fill="none"></circle><circle r="5" fill="#000"></circle></g><g transform="translate(200,0)"><line x1="0" y1="-15" x2="0" y2="15" stroke="#191919" stroke-width="1"></line><line x1="-15" y1="0" x2="15" y2="0" stroke="#191919" stroke-width="1"></line><circle r="10" stroke="#191919" stroke-width="1" fill="none"></circle><circle r="5" fill="#191919"></circle></g><g transform="translate(173.20508075688775,99.99999999999999)"><line x1="0" y1="-15" x2="0" y2="15" stroke="#323232" stroke-width="1"></line><line x1="-15" y1="0" x2="15" y2="0" stroke="#323232" stroke-width="1"></line><circle r="10" stroke="#323232" stroke-width="1" fill="none"></circle><circle r="5" fill="#323232"></circle></g><g transform="translate(100.00000000000003,173.20508075688772)"><line x1="0" y1="-15" x2="0" y2="15" stroke="#4b4b4b" stroke-width="1"></line><line x1="-15" y1="0" x2="15" y2="0" stroke="#4b4b4b" stroke-width="1"></line><circle r="10" stroke="#4b4b4b" stroke-width="1" fill="none"></circle><circle r="5" fill="#4b4b4b"></circle></g><g transform="translate(1.2246467991473532e-14,200)"><line x1="0" y1="-15" x2="0" y2="15" stroke="#646464" stroke-width="1"></line><line x1="-15" y1="0" x2="15" y2="0" stroke="#646464" stroke-width="1"></line><circle r="10" stroke="#646464" stroke-width="1" fill="none"></circle><circle r="5" fill="#646464"></circle></g><g transform="translate(-99.99999999999996,173.20508075688775)"><line x1="0" y1="-15" x2="0" y2="15" stroke="#7d7d7d" stroke-width="1"></line><line x1="-15" y1="0" x2="15" y2="0" stroke="#7d7d7d" stroke-width="1"></line><circle r="10" stroke="#7d7d7d" stroke-width="1" fill="none"></circle><circle r="5" fill="#7d7d7d"></circle></g><g transform="translate(-173.20508075688775,99.99999999999999)"><line x1="0" y1="-15" x2="0" y2="15" stroke="#969696" stroke-width="1"></line><line x1="-15" y1="0" x2="15" y2="0" stroke="#969696" stroke-width="1"></line><circle r="10" stroke="#969696" stroke-width="1" fill="none"></circle><circle r="5" fill="#969696"></circle></g><g transform="translate(-200,2.4492935982947064e-14)"><line x1="0" y1="-15" x2="0" y2="15" stroke="#afafaf" stroke-width="1"></line><line x1="-15" y1="0" x2="15" y2="0" stroke="#afafaf" stroke-width="1"></line><circle r="10" stroke="#afafaf" stroke-width="1" fill="none"></circle><circle r="5" fill="#afafaf"></circle></g><g transform="translate(-173.20508075688772,-100.00000000000003)"><line x1="0" y1="-15" x2="0" y2="15" stroke="#c8c8c8" stroke-width="1"></line><line x1="-15" y1="0" x2="15" y2="0" stroke="#c8c8c8" stroke-width="1"></line><circle r="10" stroke="#c8c8c8" stroke-width="1" fill="none"></circle><circle r="5" fill="#c8c8c8"></circle></g><g transform="translate(-100.00000000000009,-173.2050807568877)"><line x1="0" y1="-15" x2="0" y2="15" stroke="#e1e1e1" stroke-width="1"></line><line x1="-15" y1="0" x2="15" y2="0" stroke="#e1e1e1" stroke-width="1"></line><circle r="10" stroke="#e1e1e1" stroke-width="1" fill="none"></circle><circle r="5" fill="#e1e1e1"></circle></g><g transform="translate(-3.6739403974420595e-14,-200)"><line x1="0" y1="-15" x2="0" y2="15" stroke="#fafafa" stroke-width="1"></line><line x1="-15" y1="0" x2="15" y2="0" stroke="#fafafa" stroke-width="1"></line><circle r="10" stroke="#fafafa" stroke-width="1" fill="none"></circle><circle r="5" fill="#fafafa"></circle></g></g></svg>