<svg viewBox="-50 -410.555127546399 860.555127546399 821.1102550927981" xmlns="http://www.w3.org/2000/svg" style="background-color:white" width="500"><g transform="scale(1,-1)"><g><pattern id="small-raster" x="0" y="0" width="10" height="10" patternUnits="userSpaceOnUse"><line x1="0" y1="0" x2="0" y2="10" stroke="#EEE" stroke-width="1"></line><line x1="0" y1="0" x2="10" y2="0" stroke="#EEE" stroke-width="1"></line></pattern><rect fill="url(#small-raster)" x="-50" y="-410.5551275463991" width="860.555127546399" height="821.1102550927981"></rect><pattern id="large-raster" x="0" y="0" width="50" height="50" patternUnits="userSpaceOnUse"><line x1="0" y1="0" x2="0" y2="50" stroke="#CCC" stroke-width="2"></line><line x1="0" y1="0" x2="50" y2="0" stroke="#CCC" stroke-width="2"></line></pattern><rect fill="url(#large-raster)" x="-50" y="-410.5551275463991" width="860.555127546399" height="821.1102550927981"></rect><g id="grid-axis"><line x1="0" y1="-410.5551275463991" x2="0" y2="410.555127546399" stroke="#666" stroke-width="2"></line><line x1="-50" y1="0" x2="810.555127546399" y2="0" stroke="#666" stroke-width="2"></line></g></g><circle cx="400.00000000000006" cy="-5.684341886080802e-14" r="360.55512754639904" fill="green" stroke="black" stroke-width="3" fill-opacity="0.2"></circle><line x1="100" y1="200" x2="200" y2="300" stroke="#666" stroke-width="4"></line><line x1="200" y1="300" x2="100" y2="-200" stroke="#666" stroke-width="4"></line><line x1="100" y1="-200" x2="100" y2="200" stroke="#666" stroke-width="4"></line><line x1="400.00000000000006" y1="-5.684341886080802e-14" x2="200" y2="300" fill="#BBB" stroke="#000" stroke-width="2"></line><line x1="400.00000000000006" y1="-5.684341886080802e-14" x2="100" y2="-200" fill="#BBB" stroke="#000" stroke-width="2"></line><line x1="400.00000000000006" y1="-5.684341886080802e-14" x2="100" y2="200" fill="#BBB" stroke="#000" stroke-width="2"></line><g transform="translate(400.00000000000006,-5.684341886080802e-14)"><line x1="0" y1="-15" x2="0" y2="15" stroke="blue" stroke-width="1"></line><line x1="-15" y1="0" x2="15" y2="0" stroke="blue" stroke-width="1"></line><circle r="10" stroke="blue" stroke-width="1" fill="none"></circle><circle r="5" fill="blue"></circle></g><circle cx="400.00000000000006" cy="-5.684341886080802e-14" r="360.55512754639904" fill="green" stroke="black" stroke-width="3" fill-opacity="0.2"></circle><g transform="translate(100,200)"><line x1="0" y1="-15" x2="0" y2="15" stroke="#C00" stroke-width="1"></line><line x1="-15" y1="0" x2="15" y2="0" stroke="#C00" stroke-width="1"></line><circle r="10" stroke="#C00" stroke-width="1" fill="none"></circle><circle r="5" fill="#C00"></circle></g><g transform="translate(200,300)"><line x1="0" y1="-15" x2="0" y2="15" stroke="#C00" stroke-width="1"></line><line x1="-15" y1="0" x2="15" y2="0" stroke="#C00" stroke-width="1"></line><circle r="10" stroke="#C00" stroke-width="1" fill="none"></circle><circle r="5" fill="#C00"></circle></g><g transform="translate(100,-200)"><line x1="0" y1="-15" x2="0" y2="15" stroke="#C00" stroke-width="1"></line><line x1="-15" y1="0" x2="15" y2="0" stroke="#C00" stroke-width="1"></line><circle r="10" stroke="#C00" stroke-width="1" fill="none"></circle><circle r="5" fill="#C00"></circle></g></g></svg>