<svg viewBox="-219.9999999999999 -219.99999999999991 460 380" xmlns="http://www.w3.org/2000/svg" style="background-color:white" width="500"><g transform="scale(1,-1)"><g><pattern id="small-raster" x="0" y="0" width="10" height="10" patternUnits="userSpaceOnUse"><line x1="0" y1="0" x2="0" y2="10" stroke="#EEE" stroke-width="1"></line><line x1="0" y1="0" x2="10" y2="0" stroke="#EEE" stroke-width="1"></line></pattern><rect fill="url(#small-raster)" x="-219.9999999999999" y="-160.00000000000009" width="460" height="380"></rect><pattern id="large-raster" x="0" y="0" width="50" height="50" patternUnits="userSpaceOnUse"><line x1="0" y1="0" x2="0" y2="50" stroke="#CCC" stroke-width="2"></line><line x1="0" y1="0" x2="50" y2="0" stroke="#CCC" stroke-width="2"></line></pattern><rect fill="url(#large-raster)" x="-219.9999999999999" y="-160.00000000000009" width="460" height="380"></rect><g id="grid-axis"><line x1="0" y1="-160.00000000000009" x2="0" y2="219.99999999999991" stroke="#666" stroke-width="2"></line><line x1="-219.9999999999999" y1="0" x2="240.0000000000001" y2="0" stroke="#666" stroke-width="2"></line></g></g><g transform="translate(30,70)"><line x1="0" y1="-15" x2="0" y2="15" stroke="#000" stroke-width="1"></line><line x1="-15" y1="0" x2="15" y2="0" stroke="#000" stroke-width="1"></line><circle r="10" stroke="#000" stroke-width="1" fill="none"></circle><circle r="5" fill="#000"></circle></g><g transform="translate(-10,-10)"><line x1="0" y1="-15" x2="0" y2="15" stroke="#000" stroke-width="1"></line><line x1="-15" y1="0" x2="15" y2="0" stroke="#000" stroke-width="1"></line><circle r="10" stroke="#000" stroke-width="1" fill="none"></circle><circle r="5" fill="#000"></circle></g><path d="M 30, 70 A 99.99999999999994 99.99999999999994 0 0 0 -10.000000000000014, -10.000000000000014" fill="none" stroke="#666" stroke-width="8"></path><path d="M 30, 70 A 99.99999999999994 99.99999999999994 0 1 1 -10.000000000000071, -10.000000000000057" fill="none" stroke="red" stroke-width="8"></path><path d="M 30.000000000000036, 70.00000000000003 A 100.00000000000006 100.00000000000006 0 0 1 -10, -10.000000000000016" fill="none" stroke="blue" stroke-width="8"></path><path d="M 30.000000000000036, 70.00000000000003 A 100.00000000000006 100.00000000000006 0 1 0 -10, -10.00000000000004" fill="none" stroke="green" stroke-width="8"></path></g></svg>